<svg width="103" height="29" viewBox="0 0 103 29" fill="none" xmlns="http://www.w3.org/2000/svg">
<path fill-rule="evenodd" clip-rule="evenodd" d="M5.57116 0.0997054C3.46866 0.978768 1.16678 3.45283 0.441784 6.56127C-0.482591 10.4944 3.35085 12.1528 3.66804 11.6091C4.03053 10.9747 2.97929 10.7572 2.76179 8.70908C2.48991 6.08095 3.71335 3.12658 5.25397 1.83971C5.54397 1.59502 5.52585 1.93033 5.52585 2.54658L5.47147 15.651C5.47147 18.4603 5.35366 19.3394 5.14522 20.2185C4.93678 21.1066 4.60147 21.7047 4.84616 21.9403C5.13616 22.1941 6.36866 21.5778 7.07553 20.581C7.8832 19.349 8.30304 17.9033 8.28085 16.4303C8.34429 14.5635 8.33522 11.6 8.34429 9.91439C8.34429 8.37377 8.37147 3.83346 8.31709 1.10564C8.29897 0.435018 6.44116 -0.262795 5.57116 0.108768V0.0997054ZM80.0015 13.2222C79.9725 14.3979 79.701 15.5549 79.204 16.6206C78.4337 18.1794 76.8205 18.6597 76.1318 16.4213C75.7693 15.2069 75.7421 13.1678 76.014 11.4641C76.2859 9.7422 77.0471 8.42814 78.3068 8.54596C79.5574 8.66377 80.1374 10.2678 80.0015 13.2222ZM59.0218 22.2666C59.0037 24.6863 58.623 26.8069 57.8074 27.4322C56.6383 28.3022 55.0887 27.6406 55.4058 25.8735C55.6868 24.3147 57.0371 22.7197 59.0308 20.7622L59.0218 22.2666ZM58.7046 13.2041C58.6516 14.3823 58.3812 15.5407 57.9071 16.6206C57.1368 18.1794 55.5146 18.6597 54.8349 16.4213C54.3818 14.8897 54.4905 12.9141 54.7171 11.6635C55.0162 10.0503 55.7321 8.54596 57.0099 8.54596C58.2605 8.54596 58.8768 9.90533 58.7046 13.2041ZM46.5518 13.186C46.5288 14.3759 46.2604 15.5483 45.7633 16.6297C44.9658 18.1703 43.3799 18.6597 42.6821 16.4213C42.1837 14.8172 42.3558 12.615 42.5643 11.4369C42.8724 9.66971 43.6518 8.42814 44.8571 8.53689C46.1077 8.66377 46.7058 10.2588 46.5518 13.186ZM102.241 14.8263C101.942 14.8263 101.797 15.1435 101.688 15.6691C101.289 17.4997 100.872 17.9166 100.329 17.9166C99.7305 17.9166 99.1868 17.0103 99.0418 15.1978C98.933 13.766 98.9512 11.1378 99.0962 8.51877C99.1234 7.98408 98.9693 7.45845 97.5283 6.93283C96.9121 6.70627 96.0058 6.37095 95.5618 7.45845C94.6644 9.52767 94.0311 11.7016 93.6768 13.9291C93.6768 13.9835 93.6043 13.9925 93.5862 13.8747C93.5227 13.0863 93.3505 11.6453 93.3324 8.62752C93.3324 8.03846 93.2055 7.54002 92.553 7.13221C92.1271 6.86033 90.8493 6.39814 90.378 6.95096C89.9883 7.40408 89.5262 8.64564 89.0458 10.1047L88.3752 12.0985L88.3843 7.67596C88.3843 7.22283 88.0762 7.06877 87.9765 7.04158C87.4448 6.87758 86.8985 6.76529 86.3452 6.70627C85.9102 6.70627 85.8015 6.95095 85.8015 7.31345C85.8015 7.35877 85.729 11.5275 85.729 14.4456V14.8625C85.4843 16.2038 84.6958 18.0253 83.8349 18.0253C82.974 18.0253 82.5662 17.2641 82.5662 13.7841C82.5662 11.7541 82.6296 10.875 82.6568 9.40689C82.6749 8.55502 82.7112 7.91158 82.7112 7.76658C82.7021 7.31345 81.9227 7.08689 81.5602 6.99627C81.1977 6.91471 80.8715 6.87845 80.6268 6.89658C80.2643 6.9147 80.0196 7.14127 80.0196 7.45845V7.95689C79.6285 7.33828 79.0462 6.86418 78.3612 6.60658C77.0562 6.21689 75.6968 6.56127 74.6727 7.99314C73.7888 9.25758 73.2685 10.7402 73.1684 12.2797C73.0234 13.6391 73.0777 15.0075 73.3224 16.1766C73.0233 17.4816 72.4524 18.0253 71.8362 18.0253C70.939 18.0253 70.2955 16.5572 70.368 14.0378C70.4224 12.3703 70.7487 11.2013 71.1112 9.51564C71.2652 8.79064 71.1474 8.42814 70.8302 8.06564C70.5402 7.73033 69.924 7.55814 69.0268 7.76658C68.3924 7.91158 67.4862 8.07471 66.6705 8.19252C66.6705 8.19252 66.7158 8.0022 66.7612 7.64877C66.9696 5.80908 64.9668 5.95408 64.3233 6.54314C63.9427 6.89658 63.689 7.30439 63.5802 8.05658C63.4262 9.2347 64.3959 9.78752 64.3959 9.78752C63.7731 12.1398 62.7291 14.3598 61.3146 16.3397V15.7053C61.3055 12.6603 61.3418 10.2678 61.3599 9.40689C61.378 8.55502 61.4143 7.92971 61.4143 7.77564C61.4143 7.44939 61.2149 7.32252 60.8162 7.16846C60.4537 7.02346 60.0368 6.93283 59.6018 6.89658C59.058 6.85127 58.7227 7.14127 58.7318 7.48564V7.95689C58.3389 7.3363 57.753 6.8619 57.0643 6.60658C55.7593 6.21689 54.3999 6.56127 53.3758 7.99314C52.5236 9.27024 52.0062 10.7412 51.8715 12.2706C51.7355 13.6935 51.7537 14.8988 51.953 15.9319C51.7446 16.956 51.1465 18.0163 50.4758 18.0163C49.6149 18.0163 49.1165 17.2641 49.1165 13.7841C49.1165 11.7541 49.1799 10.875 49.2071 9.40689C49.2252 8.55502 49.2615 7.91158 49.2615 7.76658C49.2615 7.31345 48.473 7.08689 48.1105 6.99627C47.7299 6.90564 47.3946 6.87846 47.1499 6.90564C46.8146 6.92377 46.579 7.22283 46.579 7.44939V7.95689C46.186 7.3363 45.6002 6.8619 44.9115 6.60658C43.6065 6.21689 42.2562 6.57033 41.223 7.99314C40.5434 8.92658 39.9996 9.95971 39.7187 12.2525C39.6426 12.8658 39.6062 13.4833 39.6099 14.1013C39.338 15.7416 38.1508 17.6356 37.1812 17.6356C36.6102 17.6356 36.0665 16.5391 36.0665 14.1919C36.0665 11.0653 36.2658 6.61564 36.293 6.1897L37.7612 6.16252C38.3774 6.16252 38.9302 6.17158 39.7458 6.12627C40.1537 6.10814 40.5433 4.64002 40.1265 4.45877C39.9362 4.37721 38.5858 4.30471 38.0421 4.29564C37.589 4.28658 36.3383 4.19596 36.3383 4.19596C36.3383 4.19596 36.4562 1.24158 36.4833 0.933455C36.5015 0.66158 36.1662 0.534705 35.9668 0.453143C35.5195 0.273102 35.0548 0.139485 34.5802 0.0543927C33.8915 -0.0815448 33.5834 0.0543926 33.5199 0.634393C33.4293 1.51346 33.384 4.09627 33.384 4.09627C32.8765 4.09627 31.1455 3.99658 30.6471 3.99658C30.1758 3.99658 29.6683 6.00845 30.3208 6.03564L33.2208 6.11721L33.1937 12.035V12.461C32.7133 14.935 31.0458 16.2672 31.0458 16.2672C31.4083 14.636 30.6652 13.4125 29.3512 12.3703C28.8618 11.9897 27.9012 11.2647 26.8227 10.4672C26.8227 10.4672 27.448 9.85096 28.0008 8.61845C28.3905 7.74846 28.4087 6.75158 27.448 6.53408C25.8621 6.16252 24.548 7.32252 24.1583 8.57314C24.0063 8.97798 23.9681 9.41677 24.048 9.84178C24.1279 10.2668 24.3228 10.6618 24.6115 10.9838L24.7474 11.156C24.3849 11.8447 23.8955 12.7691 23.4787 13.4941C22.3277 15.4878 21.4487 17.0738 20.7871 17.0738C20.2615 17.0738 20.2705 15.4697 20.2705 13.9653C20.2705 12.6694 20.3612 10.721 20.4427 8.70908C20.4699 8.03846 20.1346 7.65783 19.5727 7.31345C19.1259 7.00438 18.6198 6.79145 18.0865 6.68814C17.4521 6.68814 15.6396 6.77877 13.9177 11.736C13.7093 12.3613 13.2833 13.4941 13.2833 13.4941L13.3196 7.54002C13.3196 7.39502 13.2471 7.26814 13.0749 7.17752C12.5341 6.89001 11.9374 6.72306 11.3258 6.68814C10.9996 6.68814 10.8365 6.84221 10.8365 7.14127L10.773 16.4756C10.773 17.1825 10.7912 18.0072 10.8637 18.3697C10.9362 18.7322 11.0449 19.0222 11.1899 19.1944C11.3258 19.3756 11.489 19.5025 11.7518 19.5569C12.0055 19.6113 13.3649 19.7835 13.4374 19.2669C13.528 18.6416 13.528 17.971 14.244 15.4606C15.3496 11.5547 16.7996 9.64252 17.4883 8.97189C17.6062 8.84502 17.7421 8.84502 17.733 9.03533L17.5337 13.8566C17.3524 18.7231 18.2405 19.6203 19.5002 19.6203C20.4699 19.6203 21.8383 18.6597 23.3065 16.231L25.7533 12.1528L27.1852 13.476C28.3452 14.5635 28.7258 15.6147 28.4721 16.6025C28.2818 17.3547 27.5477 18.1431 26.2608 17.3819C25.8802 17.1553 25.7171 16.9831 25.3455 16.7385C25.1371 16.6025 24.829 16.5572 24.6387 16.7022C24.1583 17.0647 23.8774 17.536 23.7233 18.1069C23.5693 18.6597 24.1312 18.9588 24.7112 19.2125C25.2096 19.4391 26.288 19.6385 26.9768 19.6656C29.6412 19.7563 31.7799 18.3788 33.2662 14.8263C33.538 17.8894 34.6708 19.6294 36.6374 19.6294C37.9515 19.6294 39.2746 17.9256 39.8546 16.2581C40.0177 16.9378 40.2624 17.5269 40.5796 18.0344C42.1021 20.436 45.0474 19.9103 46.5246 17.8713C46.9777 17.246 47.0502 17.0194 47.0502 17.0194C47.0945 17.7055 47.3912 18.351 47.8832 18.8313C48.3752 19.3115 49.0276 19.5926 49.7146 19.6203C50.7115 19.6203 51.7355 19.1491 52.4605 17.5269C52.5421 17.7081 52.6418 17.8713 52.7324 18.0344C54.2549 20.436 57.2002 19.9103 58.6774 17.8713L58.8587 17.6175L58.904 18.8863L57.5446 20.1278C55.2608 22.2122 53.5208 23.7981 53.394 25.6469C53.2308 28.0031 55.143 28.8731 56.593 28.991C57.3183 29.027 58.04 28.8688 58.6837 28.5327C59.3273 28.1965 59.8695 27.6946 60.2543 27.0788C60.9612 26.0366 61.4324 23.7891 61.3962 21.5688L61.3418 18.3425C63.5126 15.8323 65.1802 12.9278 66.2537 9.78752C66.2537 9.78752 67.0965 9.79658 67.9937 9.7422C68.2837 9.72408 68.3652 9.77846 68.3109 9.98689C68.2474 10.2406 67.178 14.3731 68.1568 17.1281C68.8274 19.0131 70.3318 19.6203 71.238 19.6203C72.2802 19.6203 73.2862 18.8319 73.8208 17.6538L74.0293 18.0344C75.5518 20.436 78.488 19.9103 79.9743 17.8713C80.3096 17.4181 80.4999 17.0194 80.4999 17.0194C80.8262 19.0131 82.3758 19.6294 83.264 19.6294C84.1883 19.6294 85.0765 19.2488 85.7833 17.5631C85.8105 18.3063 85.8558 18.9135 85.9283 19.1038C85.9737 19.2216 86.2365 19.3756 86.4359 19.4391C87.2787 19.7472 88.1396 19.6022 88.4658 19.5388C88.6833 19.4935 88.8555 19.3122 88.8827 18.8591C88.9462 17.6538 88.9099 15.6328 89.2724 14.1375C89.8796 11.6091 90.4505 10.6303 90.7224 10.15C90.8765 9.87814 91.0487 9.83283 91.0577 10.1228C91.0668 10.7028 91.094 12.4066 91.3296 14.6994C91.5108 16.385 91.7465 17.3819 91.9187 17.69C92.4352 18.5963 93.0696 18.6416 93.5771 18.6416C93.9033 18.6416 94.5921 18.551 94.5287 17.98C94.5015 17.6991 94.5468 15.9681 95.163 13.485C95.5527 11.8628 96.2052 10.4038 96.4408 9.86002C96.5315 9.66971 96.5768 9.82377 96.5768 9.86002C96.5224 10.9656 96.4137 14.6178 96.8668 16.6206C97.483 19.3213 99.2683 19.6294 99.8937 19.6294C101.226 19.6294 102.313 18.6144 102.676 15.9591C102.766 15.3247 102.631 14.8263 102.241 14.8263Z" fill="#262626"/>
</svg>
