<svg width="24" height="24" viewBox="0 0 24 24" fill="none" xmlns="http://www.w3.org/2000/svg">
<path d="M12.0032 2.00098C13.3032 1.95924 14.5984 2.17924 15.8117 2.64792C17.025 3.11661 18.1318 3.8244 19.0661 4.72925C20.0005 5.63411 20.7435 6.71755 21.2508 7.91521C21.7582 9.11286 22.0197 10.4003 22.0197 11.701C22.0197 13.0017 21.7582 14.2891 21.2508 15.4868C20.7435 16.6844 20.0005 17.7679 19.0661 18.6727C18.1318 19.5776 17.025 20.2854 15.8117 20.754C14.5984 21.2227 13.3032 21.4427 12.0032 21.401C11.0253 21.4037 10.0515 21.2745 9.1082 21.017C8.93122 20.9687 8.74299 20.9828 8.5752 21.057L6.5912 21.933C6.47124 21.9857 6.34016 22.0082 6.20947 21.9985C6.07878 21.9888 5.95247 21.9472 5.84162 21.8773C5.73076 21.8074 5.63875 21.7114 5.57364 21.5977C5.50854 21.4839 5.47233 21.356 5.4682 21.225L5.4142 19.445C5.40969 19.3369 5.38346 19.2308 5.33708 19.133C5.29069 19.0353 5.22509 18.9478 5.1442 18.876C4.14037 17.9723 3.341 16.8649 2.7995 15.6275C2.25801 14.3902 1.98686 13.0515 2.0042 11.701C1.9966 10.3995 2.25234 9.10999 2.75603 7.90993C3.25972 6.70987 4.00096 5.6241 4.93515 4.71794C5.86934 3.81178 6.97717 3.10395 8.19201 2.63703C9.40685 2.17011 10.7026 1.95376 12.0032 2.00098Z" stroke="#262626" stroke-width="1.739" stroke-miterlimit="10"/>
<path fill-rule="evenodd" clip-rule="evenodd" d="M17.7901 10.132C17.8736 10.0008 17.9081 9.8444 17.8875 9.6903C17.8668 9.5362 17.7923 9.39437 17.6772 9.28989C17.562 9.1854 17.4137 9.12499 17.2583 9.11933C17.1029 9.11368 16.9505 9.16314 16.8281 9.25897L14.2721 11.309C14.1631 11.3915 14.0302 11.4364 13.8934 11.4367C13.7567 11.4371 13.6235 11.3929 13.5141 11.311L11.0601 9.46998C10.886 9.33963 10.6868 9.24673 10.4751 9.19712C10.2633 9.14752 10.0436 9.14227 9.82969 9.18172C9.61581 9.22117 9.41242 9.30446 9.2323 9.42635C9.05218 9.54824 8.89924 9.7061 8.7831 9.88998L6.2161 13.87C6.13181 14.001 6.09667 14.1576 6.11691 14.3121C6.13716 14.4666 6.21147 14.6089 6.32666 14.7138C6.44185 14.8187 6.59048 14.8793 6.74617 14.8851C6.90185 14.8908 7.05453 14.8411 7.1771 14.745L9.7331 12.696C9.8422 12.6132 9.97531 12.5682 10.1123 12.5678C10.2492 12.5675 10.3826 12.6118 10.4921 12.694L12.9441 14.534C13.1182 14.6645 13.3175 14.7575 13.5293 14.8072C13.7412 14.8569 13.9611 14.8622 14.1751 14.8228C14.3891 14.7833 14.5926 14.7 14.7728 14.578C14.953 14.456 15.106 14.298 15.2221 14.114L17.7901 10.132Z" fill="#262626"/>
</svg>
