<svg width="13" height="14" viewBox="0 0 13 14" fill="none" xmlns="http://www.w3.org/2000/svg">
<path d="M8.57475 6.45671C8.44973 6.45671 8.32751 6.49378 8.22356 6.56324C8.11961 6.6327 8.03859 6.73143 7.99074 6.84693C7.9429 6.96244 7.93038 7.08954 7.95477 7.21216C7.97916 7.33478 8.03936 7.44741 8.12777 7.53582C8.21617 7.62422 8.32881 7.68442 8.45143 7.70882C8.57405 7.73321 8.70115 7.72069 8.81665 7.67284C8.93216 7.625 9.03088 7.54398 9.10034 7.44003C9.1698 7.33607 9.20687 7.21386 9.20687 7.08884C9.20687 6.92119 9.14028 6.7604 9.02173 6.64186C8.90318 6.52331 8.7424 6.45671 8.57475 6.45671ZM5.05392 7.08884C5.05392 6.96379 5.01683 6.84155 4.94735 6.73759C4.87786 6.63363 4.77911 6.55261 4.66357 6.50478C4.54803 6.45695 4.4209 6.44446 4.29827 6.4689C4.17563 6.49333 4.063 6.55359 3.97462 6.64205C3.88624 6.73051 3.82608 6.84319 3.80175 6.96585C3.77742 7.0885 3.79001 7.21562 3.83794 7.33112C3.88587 7.44661 3.96697 7.5453 4.071 7.61469C4.17502 7.68409 4.29729 7.72107 4.42233 7.72096C4.58989 7.72082 4.75053 7.65416 4.86896 7.53562C4.98739 7.41709 5.05392 7.25639 5.05392 7.08884ZM7.85054 8.84384C7.67817 9.0292 7.46951 9.17711 7.23752 9.27837C7.00554 9.37963 6.75519 9.43207 6.50207 9.43242C6.24895 9.43278 5.99847 9.38105 5.7662 9.28044C5.53393 9.17983 5.32484 9.03251 5.15196 8.84763C5.06174 8.73579 4.93079 8.66437 4.78791 8.64908C4.64504 8.63379 4.50194 8.67589 4.3901 8.76611C4.27826 8.85633 4.20685 8.98728 4.19156 9.13015C4.17627 9.27303 4.21836 9.41612 4.30858 9.52796C4.58291 9.83853 4.92012 10.0872 5.29786 10.2576C5.67561 10.4279 6.08525 10.516 6.49962 10.516C6.914 10.516 7.32364 10.4279 7.70139 10.2576C8.07913 10.0872 8.41634 9.83853 8.69067 9.52796C8.77731 9.41622 8.81683 9.27504 8.80078 9.13456C8.78473 8.99408 8.71439 8.86544 8.60478 8.77612C8.49516 8.6868 8.35497 8.64389 8.21414 8.65654C8.07332 8.66919 7.94302 8.73641 7.85108 8.84384H7.85054ZM6.50017 0.772461C5.26815 0.772461 4.06381 1.1378 3.03943 1.82226C2.01504 2.50673 1.21664 3.4796 0.745166 4.61783C0.273695 5.75606 0.150337 7.00854 0.390691 8.21688C0.631044 9.42522 1.22432 10.5351 2.09548 11.4063C2.96664 12.2775 4.07658 12.8707 5.28492 13.1111C6.49326 13.3515 7.74573 13.2281 8.88396 12.7566C10.0222 12.2852 10.9951 11.4867 11.6795 10.4624C12.364 9.43799 12.7293 8.23364 12.7293 7.00163C12.7275 5.35012 12.0706 3.76679 10.9028 2.599C9.735 1.43121 8.15167 0.774325 6.50017 0.772461ZM6.50017 12.1475C5.48242 12.1475 4.48752 11.8457 3.64129 11.2802C2.79507 10.7148 2.13551 9.91113 1.74604 8.97085C1.35656 8.03057 1.25466 6.99592 1.45321 5.99773C1.65176 4.99953 2.14185 4.08263 2.86151 3.36297C3.58117 2.64332 4.49807 2.15322 5.49626 1.95467C6.49446 1.75612 7.52911 1.85802 8.46939 2.2475C9.40967 2.63697 10.2133 3.29653 10.7788 4.14276C11.3442 4.98898 11.646 5.98388 11.646 7.00163C11.6446 8.36595 11.102 9.67398 10.1372 10.6387C9.17252 11.6034 7.86449 12.146 6.50017 12.1475Z" fill="#8E8E8E"/>
</svg>
