<svg width="24" height="24" viewBox="0 0 24 24" fill="none" xmlns="http://www.w3.org/2000/svg">
<path d="M16.7922 3.90397C18.1066 3.97664 19.339 4.56587 20.2209 5.54328C21.1028 6.52068 21.5626 7.80701 21.5002 9.12197C21.5002 12.194 18.8482 14.081 16.3032 16.344C13.7912 18.587 12.4382 19.813 12.0002 20.096C11.5232 19.787 9.85717 18.273 7.69717 16.344C5.14117 14.072 2.50017 12.167 2.50017 9.12197C2.43773 7.80701 2.89755 6.52068 3.77943 5.54328C4.6613 4.56587 5.89373 3.97664 7.20817 3.90397C7.93631 3.8819 8.65772 4.04915 9.30188 4.38937C9.94603 4.72959 10.4909 5.23113 10.8832 5.84497C11.7232 7.01997 11.8632 7.60797 12.0032 7.60797C12.1432 7.60797 12.2812 7.01997 13.1132 5.84197C13.5032 5.22529 14.0483 4.72176 14.6939 4.38169C15.3395 4.04161 16.063 3.87688 16.7922 3.90397ZM16.7922 1.90397C15.8841 1.8749 14.9812 2.05106 14.1506 2.41932C13.3201 2.78759 12.5833 3.33848 11.9952 4.03097C11.4075 3.3405 10.6723 2.79088 9.84371 2.42272C9.01515 2.05457 8.11445 1.87729 7.20817 1.90397C5.36304 1.97612 3.62155 2.77596 2.36451 4.12857C1.10747 5.48118 0.43716 7.27651 0.500165 9.12197C0.500165 12.732 3.05017 14.949 5.51517 17.092C5.79817 17.338 6.08417 17.586 6.36817 17.839L7.39517 18.757C8.51521 19.8227 9.68943 20.8301 10.9132 21.775C11.2369 21.9846 11.6144 22.0962 12.0002 22.0962C12.3859 22.0962 12.7634 21.9846 13.0872 21.775C14.3499 20.8012 15.5602 19.7614 16.7132 18.66L17.6352 17.836C17.9282 17.576 18.2252 17.317 18.5202 17.062C20.8542 15.037 23.5002 12.742 23.5002 9.12197C23.5632 7.27651 22.8929 5.48118 21.6358 4.12857C20.3788 2.77596 18.6373 1.97612 16.7922 1.90397Z" fill="#262626"/>
</svg>
