<svg width="24" height="24" viewBox="0 0 24 24" fill="none" xmlns="http://www.w3.org/2000/svg">
<path d="M2.04883 7.00195H21.9498" stroke="#262626" stroke-width="2" stroke-linejoin="round"/>
<path d="M13.5039 2.00098L16.3619 7.00198" stroke="#262626" stroke-width="2" stroke-linecap="round" stroke-linejoin="round"/>
<path d="M7.20703 2.10999L10.002 7.00199" stroke="#262626" stroke-width="2" stroke-linecap="round" stroke-linejoin="round"/>
<path d="M2 12.001V15.45C2 18.299 2.698 19.456 3.606 20.395C4.546 21.303 5.704 22.002 8.552 22.002H15.448C18.296 22.002 19.454 21.303 20.394 20.395C21.302 19.456 22 18.299 22 15.45V8.552C22 5.704 21.302 4.546 20.394 3.607C19.454 2.699 18.296 2 15.448 2H8.552C5.704 2 4.546 2.699 3.606 3.607C2.698 4.546 2 5.704 2 8.552V12.001Z" stroke="#262626" stroke-width="2" stroke-linecap="round" stroke-linejoin="round"/>
<path fill-rule="evenodd" clip-rule="evenodd" d="M9.76308 17.664C9.62495 17.5843 9.51027 17.4696 9.43057 17.3314C9.35087 17.1933 9.30897 17.0365 9.30908 16.877V11.63C9.30889 11.4703 9.35078 11.3134 9.43053 11.175C9.51029 11.0367 9.62508 10.9218 9.76337 10.8419C9.90165 10.762 10.0585 10.7199 10.2182 10.72C10.378 10.72 10.5348 10.7621 10.6731 10.842L15.2181 13.466C15.3564 13.5458 15.4713 13.6606 15.5511 13.7988C15.631 13.937 15.6731 14.0939 15.6731 14.2535C15.6731 14.4132 15.631 14.57 15.5511 14.7083C15.4713 14.8465 15.3564 14.9613 15.2181 15.041L10.6731 17.665C10.5347 17.7449 10.3778 17.787 10.2181 17.787C10.0583 17.787 9.90142 17.7449 9.76308 17.665V17.664Z" fill="#262626"/>
</svg>
